<svg width="200" height="200" viewBox="0 0 200 200" fill="none" xmlns="http://www.w3.org/2000/svg">
<rect width="200" height="200" fill="#FF0000"/>
<path d="M68.0889 54.2627L71.1504 79.4971C64.7181 80.3011 59.8011 82.4658 56.3994 85.9912C52.9977 89.5166 51.2969 93.7842 51.2969 98.7939C51.2969 104.175 53.3379 108.69 57.4199 112.339C61.5019 116.05 67.0065 117.905 73.9336 117.905C80.4896 117.905 85.6849 116.143 89.5195 112.617C93.3542 109.092 95.2715 104.793 95.2715 99.7217C95.2715 96.3818 94.6221 92.3926 93.3232 87.7539L114.568 90.6299C114.383 97.6807 115.898 103.062 119.114 106.772C122.392 110.483 126.722 112.339 132.103 112.339C136.679 112.339 140.328 110.978 143.05 108.257C145.771 105.535 147.132 101.917 147.132 97.4023C147.132 92.9492 145.586 89.1455 142.493 85.9912C139.401 82.8369 134.886 80.9196 128.948 80.2393L133.03 56.2109C141.256 57.8809 147.812 60.3857 152.698 63.7256C157.646 67.1273 161.512 71.8278 164.295 77.8272C167.14 83.8884 168.562 90.6608 168.562 98.1445C168.562 110.947 164.48 121.214 156.316 128.945C149.637 135.316 142.091 138.501 133.68 138.501C121.743 138.501 112.218 131.976 105.105 118.926C103.436 126.719 99.6937 132.935 93.8799 137.573C88.0661 142.274 81.0462 144.624 72.8203 144.624C60.8835 144.624 50.7093 140.264 42.2978 131.543C33.8864 122.822 29.6807 111.968 29.6807 98.9795C29.6807 86.6715 33.2061 76.4665 40.2568 68.3643C47.3695 60.262 56.6468 55.5615 68.0889 54.2627Z" fill="white"/>
</svg>
